<svg fill="currentColor" preserveAspectRatio="xMidYMid meet" data-bbox="19.999 25 160.002 150" viewBox="19.999 25 160.002 150" xmlns="http://www.w3.org/2000/svg" data-type="color" role="presentation" aria-hidden="true" aria-label="Ground Up">
    <g>
        <path d="M135.555 61.102a3.812 3.812 0 0 1-3.81-3.814V38.983a3.811 3.811 0 1 1 7.62 0v18.305a3.811 3.811 0 0 1-3.81 3.814z" fill="currentColor" data-color="1"/>
        <path d="M155.873 77.373a3.812 3.812 0 0 1-3.81-3.814V38.983a3.811 3.811 0 1 1 7.62 0v34.576a3.812 3.812 0 0 1-3.81 3.814z" fill="currentColor" data-color="1"/>
        <path d="M155.873 42.797h-20.317a3.812 3.812 0 0 1-3.81-3.814 3.812 3.812 0 0 1 3.81-3.814h20.317a3.812 3.812 0 0 1 3.81 3.814 3.812 3.812 0 0 1-3.81 3.814z" fill="currentColor" data-color="1"/>
        <path d="M23.81 175a3.812 3.812 0 0 1-3.81-3.814V89.831a3.811 3.811 0 1 1 7.62 0v81.356A3.812 3.812 0 0 1 23.81 175z" fill="currentColor" data-color="1"/>
        <path d="M176.19 175a3.812 3.812 0 0 1-3.81-3.814V89.831a3.811 3.811 0 1 1 7.62 0v81.356a3.812 3.812 0 0 1-3.81 3.813z" fill="currentColor" data-color="1"/>
        <path d="M176.19 175H23.81a3.812 3.812 0 0 1-3.81-3.814 3.812 3.812 0 0 1 3.81-3.814h152.38a3.812 3.812 0 0 1 3.81 3.814 3.812 3.812 0 0 1-3.81 3.814z" fill="currentColor" data-color="1"/>
        <path d="M23.812 93.644a3.8 3.8 0 0 1-2.977-1.431 3.817 3.817 0 0 1 .595-5.361l76.19-61.017a3.808 3.808 0 0 1 5.355.596 3.817 3.817 0 0 1-.595 5.361L26.19 92.809a3.795 3.795 0 0 1-2.378.835z" fill="currentColor" data-color="1"/>
        <path d="M94.921 144.492H54.286a3.812 3.812 0 0 1-3.81-3.814V100a3.812 3.812 0 0 1 3.81-3.814h40.635a3.812 3.812 0 0 1 3.81 3.814v40.678a3.813 3.813 0 0 1-3.81 3.814zm-36.826-7.628h33.016v-33.051H58.095v33.051z" fill="currentColor" data-color="1"/>
        <path d="M74.603 144.492a3.812 3.812 0 0 1-3.81-3.814V100a3.812 3.812 0 0 1 3.81-3.814 3.812 3.812 0 0 1 3.81 3.814v40.678a3.812 3.812 0 0 1-3.81 3.814z" fill="currentColor" data-color="1"/>
        <path d="M115.238 175a3.812 3.812 0 0 1-3.81-3.814V100a3.812 3.812 0 0 1 3.81-3.814 3.812 3.812 0 0 1 3.81 3.814v71.186a3.812 3.812 0 0 1-3.81 3.814z" fill="currentColor" data-color="1"/>
        <path d="M145.714 175a3.812 3.812 0 0 1-3.81-3.814V100a3.812 3.812 0 0 1 3.81-3.814 3.812 3.812 0 0 1 3.81 3.814v71.186a3.812 3.812 0 0 1-3.81 3.814z" fill="currentColor" data-color="1"/>
        <path d="M145.714 103.814h-30.476c-2.104 0-3.81-1.707-3.81-3.814s1.705-3.814 3.81-3.814h30.476c2.104 0 3.81 1.707 3.81 3.814s-1.706 3.814-3.81 3.814z" fill="currentColor" data-color="1"/>
        <path d="M135.553 61.102a3.793 3.793 0 0 1-2.377-.835L97.62 31.792c-1.643-1.316-1.909-3.716-.595-5.361s3.712-1.911 5.355-.596l35.555 28.475a3.817 3.817 0 0 1 .595 5.361 3.8 3.8 0 0 1-2.977 1.431z" fill="currentColor" data-color="1"/>
        <path d="M176.188 93.644a3.79 3.79 0 0 1-2.377-.835l-20.317-16.271a3.817 3.817 0 0 1-.595-5.361 3.808 3.808 0 0 1 5.355-.596l20.317 16.271a3.817 3.817 0 0 1 .595 5.361 3.804 3.804 0 0 1-2.978 1.431z" fill="currentColor" data-color="1"/>
    </g>
</svg>